<svg xmlns="http://www.w3.org/2000/svg" xmlns:xlink="http://www.w3.org/1999/xlink" width="500" zoomAndPan="magnify"
     viewBox="0 0 375 374.999991" height="500" preserveAspectRatio="xMidYMid meet" version="1.0">
  <defs>
    <g/>
    <clipPath id="c54208cc5a">
      <path d="M 33 159 L 91 159 L 91 215 L 33 215 Z M 33 159 " clip-rule="nonzero"/>
    </clipPath>
    <clipPath id="89e7530508">
      <path
        d="M 18.75 187.960938 L 62.765625 143.945312 L 105.722656 186.902344 L 61.707031 230.917969 Z M 18.75 187.960938 "
        clip-rule="nonzero"/>
    </clipPath>
    <clipPath id="a07dfcdaf7">
      <path
        d="M 18.75 187.960938 L 62.765625 143.945312 L 105.722656 186.902344 L 61.707031 230.917969 Z M 18.75 187.960938 "
        clip-rule="nonzero"/>
    </clipPath>
    <clipPath id="0e5b76c3d6">
      <path
        d="M 18.75 187.960938 L 62.765625 143.945312 L 105.722656 186.902344 L 61.707031 230.917969 Z M 18.75 187.960938 "
        clip-rule="nonzero"/>
    </clipPath>
    <clipPath id="ebebd8f2c5">
      <path d="M 59 183 L 65 183 L 65 189 L 59 189 Z M 59 183 " clip-rule="nonzero"/>
    </clipPath>
    <clipPath id="ff8dcd435e">
      <path
        d="M 18.75 187.960938 L 62.765625 143.945312 L 105.722656 186.902344 L 61.707031 230.917969 Z M 18.75 187.960938 "
        clip-rule="nonzero"/>
    </clipPath>
    <clipPath id="498163fd49">
      <path
        d="M 18.75 187.960938 L 62.765625 143.945312 L 105.722656 186.902344 L 61.707031 230.917969 Z M 18.75 187.960938 "
        clip-rule="nonzero"/>
    </clipPath>
    <clipPath id="5b4ffba176">
      <path
        d="M 18.75 187.960938 L 62.765625 143.945312 L 105.722656 186.902344 L 61.707031 230.917969 Z M 18.75 187.960938 "
        clip-rule="nonzero"/>
    </clipPath>
  </defs>
  <g clip-path="url(#c54208cc5a)">
    <g clip-path="url(#89e7530508)">
      <g clip-path="url(#a07dfcdaf7)">
        <g clip-path="url(#0e5b76c3d6)">
          <path fill="#5faee3"
                d="M 73.894531 205.371094 C 73.816406 205.273438 73.738281 205.171875 73.652344 205.082031 C 72.386719 203.636719 70.765625 202.058594 68.863281 200.8125 L 68.855469 200.800781 C 68.816406 202.457031 68.746094 204.1875 68.632812 206.027344 C 66.539062 203.996094 64.261719 202.929688 61.980469 202.933594 L 61.976562 202.929688 C 61.972656 202.933594 61.972656 202.933594 61.972656 202.933594 C 59.695312 202.9375 57.414062 204.007812 55.3125 206.046875 C 55.207031 204.207031 55.140625 202.476562 55.109375 200.820312 L 55.097656 200.832031 C 53.195312 202.085938 51.5625 203.664062 50.292969 205.121094 C 50.210938 205.207031 50.132812 205.308594 50.054688 205.40625 C 50.070312 197.257812 53.734375 193.925781 55.210938 192.914062 C 56.152344 173.851562 62.027344 170.3125 62.027344 170.3125 C 62.027344 170.3125 67.894531 173.832031 68.777344 192.894531 C 70.25 193.902344 73.902344 197.222656 73.894531 205.371094 Z M 59.871094 159.554688 C 46.160156 160.613281 35.070312 171.667969 33.976562 185.375 C 32.882812 198.976562 41.542969 210.753906 53.710938 214.476562 C 57.402344 215.613281 60.992188 212.355469 60.34375 208.539062 L 60.34375 208.53125 L 56.351562 208.539062 C 56.351562 208.535156 56.347656 208.539062 56.351562 208.535156 C 57.578125 207.097656 59.585938 205.304688 61.972656 205.304688 C 64.363281 205.300781 66.363281 207.085938 67.585938 208.515625 C 67.585938 208.515625 67.582031 208.519531 67.585938 208.523438 L 63.597656 208.527344 C 62.929688 212.378906 66.5625 215.59375 70.292969 214.425781 C 81.75 210.855469 90.101562 200.148438 90.121094 187.546875 C 90.144531 171.324219 76.359375 158.289062 59.871094 159.554688 "
                fill-opacity="1" fill-rule="nonzero"/>
        </g>
      </g>
    </g>
  </g>
  <g clip-path="url(#ebebd8f2c5)">
    <g clip-path="url(#ff8dcd435e)">
      <g clip-path="url(#498163fd49)">
        <g clip-path="url(#5b4ffba176)">
          <path fill="#5faee3"
                d="M 64.222656 186.132812 C 64.21875 187.351562 63.226562 188.347656 62 188.351562 C 60.777344 188.351562 59.785156 187.359375 59.785156 186.136719 C 59.789062 184.910156 60.78125 183.914062 62.007812 183.917969 C 63.230469 183.910156 64.222656 184.902344 64.222656 186.132812 "
                fill-opacity="1" fill-rule="nonzero"/>
        </g>
      </g>
    </g>
  </g>
  <g fill="#ffffff" fill-opacity="1">
    <g transform="translate(124.016248, 171.749989)">
      <g>
        <path
          d="M 18.046875 -30.15625 L 18.046875 -25.046875 L 11.953125 -25.046875 L 11.953125 0 L 6.078125 0 L 6.078125 -25.046875 L 0 -25.046875 L 0 -30.15625 Z M 18.046875 -30.15625 "/>
      </g>
    </g>
  </g>
  <g fill="#ffffff" fill-opacity="1">
    <g transform="translate(139.77446, 171.749989)">
      <g>
        <path
          d="M 15.953125 -30.953125 L 27.40625 0 L 21.125 0 L 18.796875 -6.359375 L 8.3125 -6.359375 L 5.84375 0 L -0.359375 0 L 11.40625 -30.953125 Z M 10 -11.15625 L 17.15625 -11.15625 L 13.40625 -22.125 L 13.3125 -22.125 Z M 10 -11.15625 "/>
      </g>
    </g>
  </g>
  <g fill="#ffffff" fill-opacity="1">
    <g transform="translate(164.531783, 171.749989)">
      <g>
        <path
          d="M 8.046875 -30.15625 L 8.046875 -5.125 L 16.359375 -5.125 L 16.359375 0 L 2.15625 0 L 2.15625 -30.15625 Z M 8.046875 -30.15625 "/>
      </g>
    </g>
  </g>
  <g fill="#ffffff" fill-opacity="1">
    <g transform="translate(178.33018, 171.749989)">
      <g>
        <path
          d="M 17.765625 -30.15625 L 17.765625 -25.046875 L 8.046875 -25.046875 L 8.046875 -18.40625 L 17.40625 -18.40625 L 17.40625 -13.28125 L 8.046875 -13.28125 L 8.046875 -5.125 L 17.765625 -5.125 L 17.765625 0 L 2.15625 0 L 2.15625 -30.15625 Z M 17.765625 -30.15625 "/>
      </g>
    </g>
  </g>
  <g fill="#ffffff" fill-opacity="1">
    <g transform="translate(195.568237, 171.749989)">
      <g>
        <path
          d="M 6.40625 -30.953125 L 22.28125 -9.875 L 22.359375 -9.875 L 22.359375 -30.15625 L 28.234375 -30.15625 L 28.234375 0.59375 L 24 0.59375 L 8.125 -20.484375 L 8.046875 -20.484375 L 8.046875 0 L 2.15625 0 L 2.15625 -30.953125 Z M 6.40625 -30.953125 "/>
      </g>
    </g>
  </g>
  <g fill="#ffffff" fill-opacity="1">
    <g transform="translate(223.645222, 171.749989)">
      <g>
        <path
          d="M 18.046875 -30.15625 L 18.046875 -25.046875 L 11.953125 -25.046875 L 11.953125 0 L 6.078125 0 L 6.078125 -25.046875 L 0 -25.046875 L 0 -30.15625 Z M 18.046875 -30.15625 "/>
      </g>
    </g>
  </g>
  <g fill="#ffffff" fill-opacity="1">
    <g transform="translate(239.410776, 171.749989)">
      <g/>
    </g>
  </g>
  <g fill="#ffffff" fill-opacity="1">
    <g transform="translate(129.195935, 227.249985)">
      <g>
        <path
          d="M 9.6875 -30.15625 C 12.613281 -30.15625 14.816406 -29.472656 16.296875 -28.109375 C 17.773438 -26.753906 18.515625 -24.71875 18.515625 -22 C 18.515625 -20.875 18.304688 -19.765625 17.890625 -18.671875 C 17.484375 -17.585938 16.8125 -16.738281 15.875 -16.125 C 17.5 -15.800781 18.765625 -14.929688 19.671875 -13.515625 C 20.585938 -12.109375 21.046875 -10.457031 21.046875 -8.5625 C 21.046875 -5.863281 20.195312 -3.757812 18.5 -2.25 C 16.800781 -0.75 14.472656 0 11.515625 0 L 2.15625 0 L 2.15625 -30.15625 Z M 8.046875 -17.59375 L 8.765625 -17.59375 C 10.359375 -17.59375 11.46875 -17.894531 12.09375 -18.5 C 12.726562 -19.101562 13.046875 -20.125 13.046875 -21.5625 C 13.046875 -22.84375 12.722656 -23.804688 12.078125 -24.453125 C 11.441406 -25.109375 10.320312 -25.4375 8.71875 -25.4375 L 8.046875 -25.4375 Z M 8.046875 -4.71875 L 9.6875 -4.71875 C 11.625 -4.71875 13.019531 -5.046875 13.875 -5.703125 C 14.726562 -6.359375 15.15625 -7.472656 15.15625 -9.046875 C 15.15625 -10.265625 14.875 -11.15625 14.3125 -11.71875 C 13.757812 -12.28125 13.148438 -12.640625 12.484375 -12.796875 C 11.703125 -13.015625 10.632812 -13.125 9.28125 -13.125 L 8.046875 -13.125 Z M 8.046875 -4.71875 "/>
      </g>
    </g>
  </g>
  <g fill="#5faee3" fill-opacity="1">
    <g transform="translate(149.033736, 227.249985)">
      <g>
        <path
          d="M 0.71875 -15.125 C 0.71875 -18.164062 1.347656 -20.882812 2.609375 -23.28125 C 3.878906 -25.675781 5.65625 -27.550781 7.9375 -28.90625 C 10.21875 -30.269531 12.785156 -30.953125 15.640625 -30.953125 C 18.546875 -30.953125 21.144531 -30.253906 23.4375 -28.859375 C 25.726562 -27.460938 27.488281 -25.554688 28.71875 -23.140625 C 29.945312 -20.722656 30.5625 -18.050781 30.5625 -15.125 C 30.5625 -12.050781 29.925781 -9.300781 28.65625 -6.875 C 27.394531 -4.445312 25.632812 -2.5625 23.375 -1.21875 C 21.125 0.125 18.546875 0.796875 15.640625 0.796875 C 12.785156 0.796875 10.226562 0.140625 7.96875 -1.171875 C 5.71875 -2.492188 3.945312 -4.378906 2.65625 -6.828125 C 1.363281 -9.285156 0.71875 -12.050781 0.71875 -15.125 Z M 15.59375 -25.15625 C 13.09375 -25.15625 11 -24.195312 9.3125 -22.28125 C 7.632812 -20.363281 6.796875 -18.054688 6.796875 -15.359375 C 6.796875 -12.347656 7.585938 -9.867188 9.171875 -7.921875 C 10.765625 -5.972656 12.921875 -5 15.640625 -5 C 18.359375 -5 20.507812 -5.972656 22.09375 -7.921875 C 23.6875 -9.867188 24.484375 -12.347656 24.484375 -15.359375 C 24.484375 -18.078125 23.640625 -20.390625 21.953125 -22.296875 C 20.273438 -24.203125 18.15625 -25.15625 15.59375 -25.15625 Z M 15.59375 -25.15625 "/>
      </g>
    </g>
  </g>
  <g fill="#5faee3" fill-opacity="1">
    <g transform="translate(178.030637, 227.249985)">
      <g>
        <path
          d="M 0.71875 -15.125 C 0.71875 -18.164062 1.347656 -20.882812 2.609375 -23.28125 C 3.878906 -25.675781 5.65625 -27.550781 7.9375 -28.90625 C 10.21875 -30.269531 12.785156 -30.953125 15.640625 -30.953125 C 18.546875 -30.953125 21.144531 -30.253906 23.4375 -28.859375 C 25.726562 -27.460938 27.488281 -25.554688 28.71875 -23.140625 C 29.945312 -20.722656 30.5625 -18.050781 30.5625 -15.125 C 30.5625 -12.050781 29.925781 -9.300781 28.65625 -6.875 C 27.394531 -4.445312 25.632812 -2.5625 23.375 -1.21875 C 21.125 0.125 18.546875 0.796875 15.640625 0.796875 C 12.785156 0.796875 10.226562 0.140625 7.96875 -1.171875 C 5.71875 -2.492188 3.945312 -4.378906 2.65625 -6.828125 C 1.363281 -9.285156 0.71875 -12.050781 0.71875 -15.125 Z M 15.59375 -25.15625 C 13.09375 -25.15625 11 -24.195312 9.3125 -22.28125 C 7.632812 -20.363281 6.796875 -18.054688 6.796875 -15.359375 C 6.796875 -12.347656 7.585938 -9.867188 9.171875 -7.921875 C 10.765625 -5.972656 12.921875 -5 15.640625 -5 C 18.359375 -5 20.507812 -5.972656 22.09375 -7.921875 C 23.6875 -9.867188 24.484375 -12.347656 24.484375 -15.359375 C 24.484375 -18.078125 23.640625 -20.390625 21.953125 -22.296875 C 20.273438 -24.203125 18.15625 -25.15625 15.59375 -25.15625 Z M 15.59375 -25.15625 "/>
      </g>
    </g>
  </g>
  <g fill="#ffffff" fill-opacity="1">
    <g transform="translate(207.027532, 227.249985)">
      <g>
        <path
          d="M 22.796875 -30.15625 L 9.5625 -5.125 L 22.078125 -5.125 L 22.078125 0 L 0.203125 0 L 13.484375 -25.046875 L 2.234375 -25.046875 L 2.234375 -30.15625 Z M 22.796875 -30.15625 "/>
      </g>
    </g>
  </g>
  <g fill="#ffffff" fill-opacity="1">
    <g transform="translate(227.745251, 227.249985)">
      <g>
        <path
          d="M 18.046875 -30.15625 L 18.046875 -25.046875 L 11.953125 -25.046875 L 11.953125 0 L 6.078125 0 L 6.078125 -25.046875 L 0 -25.046875 L 0 -30.15625 Z M 18.046875 -30.15625 "/>
      </g>
    </g>
  </g>
  <path stroke-linecap="butt" transform="matrix(0, -0.75, 0.75, 0, 98.690938, 247.499984)" fill="none"
        stroke-linejoin="miter" d="M -0.00002167 2.000624 L 159.999989 2.000624 " stroke="#ffffff" stroke-width="4"
        stroke-opacity="1" stroke-miterlimit="4"/>
</svg>
