<svg xmlns="http://www.w3.org/2000/svg" xmlns:xlink="http://www.w3.org/1999/xlink" xml:space="preserve" viewBox="0 0 295.5 666" enable-background="new 0 0 295.5 666" id="man-with-tablet">
  <path d="m132.3 611-3.6-.1-18.7.2s-4.1 19.2-6.3 27.2c-.1.5-.6 1.8-.8 2.8-.3 1.4-.4 2.8-.4 4.2.4 7.3 3.1 13.4 9.6 16.7 7.1 3.6 12.6 6.9 20.2 0s8.6-11.3 5.7-23.3-3.9-27.3-5.7-27.7zM210.6 634.9c-12.9-4.1-21.5-21.6-21.5-21.6l-22-1.3s-1.2 17.8-1.8 26.8c-.8 12 1.2 17.3 9.1 16.7 10.4-.8 52.7 3 59.4-1.3 8.7-5.6-11.2-15.5-23.2-19.3z" fill="#4b44be"></path>
  <linearGradient id="a" x1="78.48" x2="214.708" y1="454.505" y2="454.505" gradientUnits="userSpaceOnUse">
    <stop offset="0" stop-color="#4f68ca"></stop>
    <stop offset="1" stop-color="#5aceed"></stop>
  </linearGradient>
  <path d="M78.5 295v26.3l31.8 290h22.5s7.8-198.9 7.8-205.8 2-28.5 2-28.5 28.3 81.7 28.8 88.5-4.6 147.5-4.6 147.5l22.5.9S209 518.7 209 509.7s6.7-55.8 5.7-64.8S197 295.7 197 295.7l-34.5-.9-84 .2z" fill="url(#a)"></path>
  <linearGradient id="b" x1="46.94" x2="231.924" y1="143.535" y2="143.535" gradientUnits="userSpaceOnUse">
    <stop offset="0" stop-color="#f87b58"></stop>
    <stop offset="0" stop-color="#f87b58"></stop>
    <stop offset=".41" stop-color="#f89453"></stop>
    <stop offset=".71" stop-color="#f8c548"></stop>
    <stop offset="1" stop-color="#f89c51"></stop>
  </linearGradient>
  <path d="m224.4 264.5-.3-.4c.1.3.2.5.3.4M158.3 239l-12.6 5.2-.7 17.4 13.9 5.5c0-.1 15.2-.6 15.2-.7.1-.7 6-.5 8.7 1.2l47.1-16.2 1.7-11.3s3.5 14.2-12.3-14.4l-61 13.3zm56.3-57.4-1-5.7-2.4-.4 3.4 6.1M127.5 30.1c-5.8 2.4-8.6 10.9-8.6 10.9s-2.8-1.7-2.8 3.1 2.4 15.6 4.1 18.4c3 4.7 5.7 9.5 8.1 14.5 2.3 5 1.5 15.2-.9 16.7s-45.2 39.9-45.2 39.9L46.9 242v4.3l5.4 1.9 5.6 4.8c.5.1 7.6 4 8.6 4.7 5.6 2.8 11.6 4.9 17.7 6.3 4 .8 21.7.4 21.7.4l17.9-.4-3.1-22.8-26.5-.3-36.2-1.8 36.7-84.4 115.8 20.7c-20.6-37.2-43.7-79-45.7-83.4-1.7-3.6.1-12.2 1.1-16.7.9-4.1 2.9-9.1 4.8-10.6s5.3-8.1 5.3-11 .8-14.2-1.6-11.8c-.7.7-3.5-3.6-4.5-7.9-1.6-6.2-5.9-10.6-10.9-14.6 0 0-25.5 8.4-31.2 10.8" fill="url(#b)"></path>
  <linearGradient id="c" x1="39.541" x2="235.128" y1="209.67" y2="209.67" gradientUnits="userSpaceOnUse">
    <stop offset="0" stop-color="#e1a1ed"></stop>
    <stop offset="1" stop-color="#7658f4"></stop>
  </linearGradient>
  <path d="M83.2 110.3c-5.6 3.8-10.8 8.9-12.7 15.5s-15.4 58-17.2 64.5c-4.4 15.9-7 20.5-12.2 39.2-6.4 23 8.3 26.5 23.3 29.9 15.6 3.5 15.7 5 19.4 5 .6 0 19.1 3.8 19.7-6.7.4-6.6-.8-17.1-3.3-16.8-5.7.8-24.1-4.1-25-4.7-1.2-.8 4-15.2 7-24.1 2.2-6.6 10.7-34 12.6-39.1 1-2.8-4.8 26.6-8.3 55.4-.1 1.1-1.5 12.3-1.1 12.3 4.2 0 15.7.2 19.3.6 16.2 1.9 19.3 9.6 18.3 15.8-1.8 10.8-41.2 5.8-41 7.2 0 0-6.8 30.6-3 32.5 3.3 1.7 47.5 20.1 56.9 23.7 1 .4 2.2-.1 2.6-1.2v-.1l6-17.2c.1-.2.3-.3.5-.2.1 0 .2.1.2.2l5.7 18.8c.1.5.5.9.9 1.1h2.5l49.1-10.6s-.2-19.4-.3-44.2c0-2.5-.4-11.7-2.2-10-1.8 1.7-42.8 7.1-47.3 5.2-9.5-4-7-13.9-3.7-18 3.8-4.7 52.2-7 52.4-10.5.8-15.2-.4-55.1-1.2-50.3-1.2 7.5-29.5 48.5-29.5 55.6s-.5 25.1-.5 25.1l46.5-3.6s15.6-5.4 17-14.4-.3-13-.9-26.4c-.4-8.5-12.4-59.6-15.8-74.1-.5-2.2-.8-4.4-1-6.6-.4-6-2.8-20-15.7-26.1-16-7.6-28.5-13.6-31.7-13.6-3 0-11.2 18-15.5 23.1-1.9 2.3-1.5 3.4-4 6.8-1.3 1.8-3.7 2.1-5.5.9-.4-.3-.7-.7-1-1.1-1.4-2-2.6-4.2-3.7-6.4-1.9-3.8-16.6-25.5-16.6-25.5s-34.4 9.2-40 13.1" fill="url(#c)"></path>
  <linearGradient id="d" x1="112.428" x2="177.523" y1="23.413" y2="23.413" gradientUnits="userSpaceOnUse">
    <stop offset="0" stop-color="#5aceed"></stop>
    <stop offset=".55" stop-color="#4f68ca"></stop>
    <stop offset="1" stop-color="#5282d3"></stop>
  </linearGradient>
  <path d="M158.9 19.5s-31.4 11.7-33.6 13.4c-2.2 1.7-6.4 8.1-6.4 8.1s-2.2-1.2-2.7 2.1c0 0-3.2-6.6-3.6-10.3-.4-3.7 0-13.2 6-19.5 6-6.3 18.1-14.6 25.6-13.5s10.7 2 15.4 6.7 8.7 6.1 10.1 6.8c1.4.7 6.8 4.6 7.7 11.9.9 7.3-1.6 21.9-1.6 21.9s.7-5.7-1.6-3.9c-1.6 1.2-3.9-4-4.6-7.1-.9-3-9-15.8-10.7-16.6z" fill="url(#d)"></path>
  <g opacity="7.000000e-02">
    <defs>
      <path id="e" d="M149.3 77.7h20.8v34.1h-20.8z"></path>
    </defs>
    <clipPath id="f">
      <use xlink:href="#e" overflow="visible"></use>
    </clipPath>
    <path d="M169.4 99.5c-.2-.6 3.4 2.1-.8-.9-5.9-4.3-3.1-21.9-3.1-21.9-2.2 4.6-6 8.2-10.7 10-7.5 2.8-9.8.7 1.8 7.4 11.4 6.6 5.5 8.9 4.7 17.6" clip-path="url(#f)"></path>
  </g>
  <g opacity="7.000000e-02">
    <defs>
      <path id="g" d="M159.1 140.7h58v100.7h-58z"></path>
    </defs>
    <clipPath id="h">
      <use xlink:href="#g" overflow="visible"></use>
    </clipPath>
    <path d="m192.4 161.7 15.6 59.1s-.1 10.5-3.2 12.1-12.9 2.6-15.2 3.6-26.2 6-20-2.4c1.4-1.9 33.8-13.2 19.3-25.1s-11.9-28.4-4.9-39.8 5.5-21.1 5.5-21.1l2.9 13.6z" clip-path="url(#h)"></path>
  </g>
  <g opacity="7.000000e-02">
    <defs>
      <path id="i" d="M73.5 295.5h47.3v359.9H73.5z"></path>
    </defs>
    <clipPath id="j">
      <use xlink:href="#i" overflow="visible"></use>
    </clipPath>
    <path d="M126.3 317.5s-13.5 71.6-6.5 100.2c10.6 43.4-4.7 102.1-4.7 130.3 0 18.3 7.2 68.9 7.7 89.5.1 6.2 4.6 18.2 1.3 21-1.4 1.2-10-1.6-14.7-3.8-2.5-1.2-3.9-3.8-3.6-6.4l2.8-12.2 4-16.2-28-262s-9-58.3-3.9-58.5 45.7 18.1 45.6 18.1" clip-path="url(#j)"></path>
  </g>
  <path d="m113.5 221.2 52.9 6.6c1.1.3 1.8 1.3 1.7 2.5l-1.5 47.8c-.1 1.5-1 3.5-2.4 3.1l-52.6-10.1c-1-.3-1.7-1.2-1.7-2.3l-.2-5.2 5.8-1.5c1.5-.4 2.9-1.2 4.1-2.1.3-.2.5-.4.7-.7l1.2-1.8c.4-.5.5-1.2.4-1.9-.2-1.1-.5-2.6-.7-3.4-.1-.3-.2-.6-.3-.8l-1.3-2.8c-.6-1.3-1.6-2.3-2.9-2.9l-.8-.4-5.7-3.1.5-18.7c0-1.3 1.1-2.3 2.4-2.3h.4z" fill="#fff"></path>
</svg>
