<svg width="70" height="70" viewBox="0 0 70 70" fill="none" xmlns="http://www.w3.org/2000/svg">
<g clip-path="url(#clip0_534_97)">
<path d="M10.2083 35C14.2304 35 17.5 31.7275 17.5 27.7083C17.5 23.6892 14.2304 20.4167 10.2083 20.4167C6.18625 20.4167 2.91667 23.6892 2.91667 27.7083C2.91667 31.7275 6.18625 35 10.2083 35ZM10.2083 23.3333C12.6204 23.3333 14.5833 25.2963 14.5833 27.7083C14.5833 30.1204 12.6204 32.0833 10.2083 32.0833C7.79625 32.0833 5.83333 30.1204 5.83333 27.7083C5.83333 25.2963 7.79625 23.3333 10.2083 23.3333ZM46.6667 62.7083V68.5417C46.6667 69.3467 46.0133 70 45.2083 70C44.4033 70 43.75 69.3467 43.75 68.5417V62.7083C43.75 61.9033 43.0938 61.25 42.2917 61.25H27.7083C26.9062 61.25 26.25 61.9033 26.25 62.7083V68.5417C26.25 69.3467 25.5967 70 24.7917 70C23.9867 70 23.3333 69.3467 23.3333 68.5417V62.7083C23.3333 60.2963 25.2963 58.3333 27.7083 58.3333H42.2917C44.7038 58.3333 46.6667 60.2963 46.6667 62.7083ZM24.5408 52.5H30.625C31.43 52.5 32.0833 51.8467 32.0833 51.0417C32.0833 50.2367 31.43 49.5833 30.625 49.5833H24.5408C24.1558 49.5833 23.7796 49.4288 23.5083 49.1575C23.5083 49.1575 14.9654 40.495 14.6183 40.18C12.7896 38.5233 10.3075 37.7183 7.85167 37.9633C3.59625 38.3892 0 42.5687 0 47.0838V65.625C0 68.0371 1.96292 70 4.375 70H13.125C15.5371 70 17.5 68.0371 17.5 65.625V47.2704L21.4492 51.2196C22.2629 52.0333 23.3917 52.5 24.5438 52.5H24.5408ZM14.5833 65.625C14.5833 66.43 13.9271 67.0833 13.125 67.0833H4.375C3.57292 67.0833 2.91667 66.43 2.91667 65.625V47.0838C2.93125 43.8258 5.67292 40.7692 8.75292 40.8333C11.8796 40.7633 14.6446 43.54 14.5833 46.6667V65.625ZM59.7917 35C63.8138 35 67.0833 31.7275 67.0833 27.7083C67.0833 23.6892 63.8138 20.4167 59.7917 20.4167C55.7696 20.4167 52.5 23.6892 52.5 27.7083C52.5 31.7275 55.7696 35 59.7917 35ZM59.7917 23.3333C62.2038 23.3333 64.1667 25.2963 64.1667 27.7083C64.1667 30.1204 62.2038 32.0833 59.7917 32.0833C57.3796 32.0833 55.4167 30.1204 55.4167 27.7083C55.4167 25.2963 57.3796 23.3333 59.7917 23.3333ZM62.1483 37.9604C59.6867 37.7242 57.2133 38.5204 55.3817 40.1771C55.0346 40.4921 46.4917 49.1546 46.4917 49.1546C46.2204 49.4258 45.8442 49.5804 45.4592 49.5804H39.375C38.57 49.5804 37.9167 50.2338 37.9167 51.0388C37.9167 51.8438 38.57 52.4971 39.375 52.4971H45.4592C46.6113 52.4971 47.7371 52.0304 48.5537 51.2167L52.5029 47.2675V65.6221C52.5029 68.0342 54.4658 69.9971 56.8779 69.9971H65.6279C68.04 69.9971 70.0029 68.0342 70.0029 65.6221V47.0808C70.0029 42.5629 66.4038 38.3863 62.1483 37.9604ZM67.0833 65.625C67.0833 66.43 66.4271 67.0833 65.625 67.0833H56.875C56.0729 67.0833 55.4167 66.43 55.4167 65.625V46.6667C55.3554 43.54 58.1204 40.7604 61.2471 40.8333C64.3271 40.7692 67.0687 43.8258 67.0833 47.0838V65.625ZM33.5417 5.83333V1.45833C33.5417 0.653333 34.195 0 35 0C35.805 0 36.4583 0.653333 36.4583 1.45833V5.83333C36.4583 6.63833 35.805 7.29167 35 7.29167C34.195 7.29167 33.5417 6.63833 33.5417 5.83333ZM44.8846 10.5321C44.3158 9.96333 44.3158 9.03875 44.8846 8.47L47.8013 5.55333C48.37 4.98458 49.2946 4.98458 49.8633 5.55333C50.4321 6.12208 50.4321 7.04667 49.8633 7.61542L46.9467 10.5321C46.3779 11.1008 45.4533 11.1008 44.8846 10.5321ZM20.1367 7.61542C19.5679 7.04667 19.5679 6.12208 20.1367 5.55333C20.7054 4.98458 21.63 4.98458 22.1988 5.55333L25.1154 8.47C25.6842 9.03875 25.6842 9.96333 25.1154 10.5321C24.5467 11.1008 23.6221 11.1008 23.0533 10.5321L20.1367 7.61542ZM27.9388 32.585C28.7204 33.18 29.1667 34.0375 29.1667 34.9417V36.4613C29.1667 38.8733 31.1296 40.8363 33.5417 40.8363H36.4583C38.8704 40.8363 40.8333 38.8733 40.8333 36.4613V34.9417C40.8333 34.0375 41.2825 33.1742 42.07 32.5762C44.9925 30.3508 46.6667 26.985 46.6667 23.3363C46.6667 19.7633 45.0625 16.4354 42.2625 14.2071C39.4596 11.9758 35.8196 11.1679 32.2525 11.9846C27.9825 12.9646 24.6021 16.3654 23.6367 20.65C22.6042 25.2117 24.255 29.7879 27.9388 32.5879V32.585ZM36.4583 37.9196H33.5417C32.7396 37.9196 32.0833 37.2663 32.0833 36.4613V35.0029H37.9167V36.4613C37.9167 37.2663 37.2604 37.9196 36.4583 37.9196ZM26.4804 21.2887C27.3292 17.4242 31.0363 14.5075 34.9796 14.5892C39.6871 14.4842 43.8521 18.62 43.75 23.3363C43.75 26.0663 42.4929 28.5892 40.3025 30.2575C39.6317 30.7679 39.1125 31.3979 38.7158 32.0863H31.2871C30.8904 31.4008 30.3742 30.7708 29.7063 30.2633C26.9442 28.1633 25.7075 24.7246 26.4804 21.2887Z" fill="#AF7AC5"/>
</g>
<defs>
<clipPath id="clip0_534_97">
<rect width="70" height="70" fill="white"/>
</clipPath>
</defs>
</svg>
