<svg width="1em" height="1em" viewBox="0 0 24 24" xmlns="http://www.w3.org/2000/svg"
     class="w-8 h-8 pointer-events-none">
  <path
    d="M16.667 4.5a4.833 4.833 0 014.828 4.618l.005.215v5.33a4.833 4.833 0 01-4.618 4.829l-.215.005H8.333a4.833 4.833 0 01-4.828-4.618l-.005-.216v-5.33a4.833 4.833 0 014.618-4.828l.215-.005h8.334zm0 1.5H8.333a3.333 3.333 0 00-3.328 3.15L5 9.333v5.33a3.333 3.333 0 003.15 3.329l.183.005h8.334a3.333 3.333 0 003.328-3.15l.005-.184v-5.33a3.333 3.333 0 00-3.15-3.328L16.667 6zm1.68 3.396c.269.42.175 1-.21 1.294l-5.03 3.846a1 1 0 01-1.215 0l-5.03-3.846c-.384-.294-.478-.874-.208-1.294.27-.42.8-.522 1.185-.228l4.66 3.564 4.662-3.564c.385-.294.916-.192 1.185.228z"
    fill="currentcolor" fill-rule="evenodd"></path>
</svg>
