<svg width="1em" height="1em" viewBox="0 0 24 24" xmlns="http://www.w3.org/2000/svg"
     class="w-8 h-8 pointer-events-none">
  <path
    d="M20.765 4.02l-.14.007c-.512.044-1.303.293-3.517 1.182L13.41 6.732c-1.916.805-5.334 2.28-10.255 4.423-.872.347-1.329.686-1.37 1.018-.055.44.367.671 1.015.896l.975.314c.94.305 2.205.663 2.863.677.596.013 1.262-.233 1.997-.738l6.61-4.418c.712-.464 1.098-.703 1.158-.716.115-.026.274-.059.381.037.108.096.097.277.086.326-.091.388-4.803 4.674-5.075 4.956l-.26.26c-.951.93-1.803 1.575-.136 2.673l1.078.72c.665.448 1.25.852 1.927 1.307l1.105.734c1.035.679 1.848 1.484 2.917 1.385.492-.045 1-.508 1.259-1.888l.309-1.697c.64-3.59 1.542-9.068 1.777-11.543a3.248 3.248 0 00-.03-.725c-.025-.143-.076-.347-.263-.499-.22-.179-.561-.216-.713-.214z"
    fill="currentcolor" fill-rule="evenodd"></path>
</svg>
