<svg height="1em" viewBox="0 0 24 24" width="1em" xmlns="http://www.w3.org/2000/svg"
     class="w-8 h-8 pointer-events-none">
  <path
    d="M2.081 11.717a9.7 9.7 0 001.298 4.857L2 21.61l5.152-1.351a9.71 9.71 0 004.27 1.175l.378.007c5.356 0 9.717-4.359 9.72-9.715a9.657 9.657 0 00-2.845-6.874 9.658 9.658 0 00-6.875-2.85c-5.357 0-9.716 4.36-9.719 9.716zm9.722-8.074c2.158 0 4.186.842 5.711 2.368a8.026 8.026 0 012.364 5.713c-.002 4.37-3.493 7.94-7.831 8.072l-.25.003c-1.45 0-2.871-.39-4.111-1.125l-.295-.175-3.058.801.817-2.98-.193-.305a8.053 8.053 0 01-1.235-4.297c.002-4.453 3.626-8.075 8.081-8.075zM8.36 7.23a.892.892 0 00-.648.304l-.16.175c-.276.31-.69.88-.69 1.85 0 .93.527 1.834.818 2.267l.217.307c.29.43 1.801 2.694 4.105 3.603l.445.17c1.67.615 2.058.475 2.469.437.445-.04 1.437-.587 1.639-1.154.202-.567.202-1.053.142-1.154a.415.415 0 00-.165-.135l-1.056-.52a17.562 17.562 0 00-.904-.419c-.223-.08-.385-.121-.547.122-.162.243-.627.79-.768.952-.124.142-.248.175-.44.1l-.46-.206a6.224 6.224 0 01-1.58-1.039c-.721-.643-1.209-1.438-1.35-1.681-.142-.243-.016-.375.106-.496.11-.109.243-.283.365-.425.12-.142.161-.243.242-.405a.42.42 0 00.008-.363l-.109-.25c-.158-.385-.495-1.23-.668-1.615-.181-.404-.373-.412-.546-.42-.142-.005-.304-.005-.465-.005z"
    fill="currentcolor"></path>
</svg>
