<svg xmlns="http://www.w3.org/2000/svg" xmlns:xlink="http://www.w3.org/1999/xlink" width="500" zoomAndPan="magnify"
     viewBox="0 0 375 374.999991" height="500" preserveAspectRatio="xMidYMid meet" version="1.0">
  <defs>
    <g/>
    <clipPath id="4f52b78118">
      <path d="M 9 141 L 47 141 L 47 178 L 9 178 Z M 9 141 " clip-rule="nonzero"/>
    </clipPath>
    <clipPath id="edd40c70c8">
      <path d="M 0 159.625 L 28.636719 130.984375 L 56.746094 159.09375 L 28.109375 187.730469 Z M 0 159.625 "
            clip-rule="nonzero"/>
    </clipPath>
    <clipPath id="067323f1fd">
      <path d="M 0 159.625 L 28.636719 130.984375 L 56.746094 159.09375 L 28.109375 187.730469 Z M 0 159.625 "
            clip-rule="nonzero"/>
    </clipPath>
    <clipPath id="c55502fab7">
      <path d="M 0 159.625 L 28.636719 130.984375 L 56.746094 159.09375 L 28.109375 187.730469 Z M 0 159.625 "
            clip-rule="nonzero"/>
    </clipPath>
    <clipPath id="fa6fd8dbc8">
      <path d="M 26 157 L 30 157 L 30 160 L 26 160 Z M 26 157 " clip-rule="nonzero"/>
    </clipPath>
    <clipPath id="0279ea3e1f">
      <path d="M 0 159.625 L 28.636719 130.984375 L 56.746094 159.09375 L 28.109375 187.730469 Z M 0 159.625 "
            clip-rule="nonzero"/>
    </clipPath>
    <clipPath id="d403d888ac">
      <path d="M 0 159.625 L 28.636719 130.984375 L 56.746094 159.09375 L 28.109375 187.730469 Z M 0 159.625 "
            clip-rule="nonzero"/>
    </clipPath>
    <clipPath id="cc6c27e7fc">
      <path d="M 0 159.625 L 28.636719 130.984375 L 56.746094 159.09375 L 28.109375 187.730469 Z M 0 159.625 "
            clip-rule="nonzero"/>
    </clipPath>
  </defs>
  <g clip-path="url(#4f52b78118)">
    <g clip-path="url(#edd40c70c8)">
      <g clip-path="url(#067323f1fd)">
        <g clip-path="url(#c55502fab7)">
          <path fill="#ffffff"
                d="M 36.015625 171.085938 C 35.960938 171.019531 35.910156 170.957031 35.855469 170.894531 C 35.027344 169.953125 33.964844 168.917969 32.722656 168.101562 L 32.714844 168.09375 C 32.695312 169.175781 32.652344 170.304688 32.582031 171.503906 C 31.210938 170.171875 29.722656 169.476562 28.234375 169.472656 L 28.234375 169.46875 C 28.230469 169.472656 28.230469 169.472656 28.230469 169.472656 C 26.742188 169.472656 25.257812 170.164062 23.890625 171.492188 C 23.820312 170.292969 23.773438 169.160156 23.746094 168.082031 L 23.738281 168.089844 C 22.5 168.902344 21.4375 169.929688 20.613281 170.875 C 20.558594 170.933594 20.511719 171 20.457031 171.0625 C 20.453125 165.746094 22.835938 163.578125 23.796875 162.921875 C 24.375 150.484375 28.203125 148.1875 28.203125 148.1875 C 28.203125 148.1875 32.039062 150.496094 32.652344 162.933594 C 33.613281 163.59375 36.003906 165.769531 36.015625 171.085938 Z M 26.777344 141.164062 C 17.832031 141.828125 10.617188 149.019531 9.929688 157.960938 C 9.242188 166.835938 14.914062 174.535156 22.859375 176.988281 C 25.273438 177.738281 27.609375 175.617188 27.175781 173.125 L 27.175781 173.121094 L 24.574219 173.121094 C 24.574219 173.113281 24.570312 173.117188 24.574219 173.113281 C 25.371094 172.179688 26.679688 171.015625 28.234375 171.019531 C 29.792969 171.019531 31.101562 172.1875 31.902344 173.125 C 31.902344 173.125 31.902344 173.128906 31.902344 173.128906 L 29.300781 173.125 C 28.871094 175.636719 31.25 177.742188 33.679688 176.988281 C 41.148438 174.679688 46.578125 167.707031 46.566406 159.488281 C 46.550781 148.902344 37.53125 140.367188 26.777344 141.164062 "
                fill-opacity="1" fill-rule="nonzero"/>
        </g>
      </g>
    </g>
  </g>
  <g clip-path="url(#fa6fd8dbc8)">
    <g clip-path="url(#0279ea3e1f)">
      <g clip-path="url(#d403d888ac)">
        <g clip-path="url(#cc6c27e7fc)">
          <path fill="#ffffff"
                d="M 29.664062 158.511719 C 29.667969 159.308594 29.019531 159.957031 28.21875 159.957031 C 27.421875 159.953125 26.773438 159.304688 26.769531 158.507812 C 26.769531 157.707031 27.417969 157.0625 28.214844 157.0625 C 29.015625 157.0625 29.664062 157.710938 29.664062 158.511719 "
                fill-opacity="1" fill-rule="nonzero"/>
        </g>
      </g>
    </g>
  </g>
  <g fill="#dddddd" fill-opacity="1">
    <g transform="translate(61.49172, 173.999989)">
      <g>
        <path
          d="M 21.046875 -30.15625 L 21.046875 -23.515625 L 14.5625 -23.515625 L 14.5625 0 L 6.71875 0 L 6.71875 -23.515625 L 0.234375 -23.515625 L 0.234375 -30.15625 Z M 21.046875 -30.15625 "/>
      </g>
    </g>
  </g>
  <g fill="#dddddd" fill-opacity="1">
    <g transform="translate(79.769603, 173.999989)">
      <g>
        <path
          d="M 20 -30.15625 L 31.359375 0 L 23 0 L 21.046875 -5.234375 L 10.234375 -5.234375 L 8.15625 0 L -0.15625 0 L 11.4375 -30.15625 Z M 12.40625 -11.234375 L 18.921875 -11.234375 L 15.71875 -20.84375 L 15.640625 -20.84375 Z M 12.40625 -11.234375 "/>
      </g>
    </g>
  </g>
  <g fill="#dddddd" fill-opacity="1">
    <g transform="translate(107.966505, 173.999989)">
      <g>
        <path
          d="M 10.40625 -30.15625 L 10.40625 -6.640625 L 19.796875 -6.640625 L 19.796875 0 L 2.5625 0 L 2.5625 -30.15625 Z M 10.40625 -30.15625 "/>
      </g>
    </g>
  </g>
  <g fill="#dddddd" fill-opacity="1">
    <g transform="translate(124.724545, 173.999989)">
      <g>
        <path
          d="M 19.71875 -30.15625 L 19.71875 -23.515625 L 10.40625 -23.515625 L 10.40625 -18.484375 L 19.234375 -18.484375 L 19.234375 -11.84375 L 10.40625 -11.84375 L 10.40625 -6.640625 L 19.71875 -6.640625 L 19.71875 0 L 2.5625 0 L 2.5625 -30.15625 Z M 19.71875 -30.15625 "/>
      </g>
    </g>
  </g>
  <g fill="#dddddd" fill-opacity="1">
    <g transform="translate(143.682357, 173.999989)">
      <g>
        <path
          d="M 10.40625 -30.15625 L 24.765625 -11.71875 L 24.84375 -11.71875 L 24.84375 -30.15625 L 32.6875 -30.15625 L 32.6875 0 L 24.84375 0 L 10.484375 -18.484375 L 10.40625 -18.484375 L 10.40625 0 L 2.5625 0 L 2.5625 -30.15625 Z M 10.40625 -30.15625 "/>
      </g>
    </g>
  </g>
  <g fill="#dddddd" fill-opacity="1">
    <g transform="translate(175.878853, 173.999989)">
      <g>
        <path
          d="M 21.046875 -30.15625 L 21.046875 -23.515625 L 14.5625 -23.515625 L 14.5625 0 L 6.71875 0 L 6.71875 -23.515625 L 0.234375 -23.515625 L 0.234375 -30.15625 Z M 21.046875 -30.15625 "/>
      </g>
    </g>
  </g>
  <g fill="#dddddd" fill-opacity="1">
    <g transform="translate(215.522964, 173.999989)">
      <g>
        <path
          d="M 13.875 -30.15625 C 19.75 -30.15625 22.695312 -27.539062 22.71875 -22.3125 C 22.71875 -19.332031 21.613281 -17.28125 19.40625 -16.15625 L 19.40625 -16.078125 C 23.507812 -15.492188 25.5625 -12.9375 25.5625 -8.40625 C 25.5625 -5.789062 24.625 -3.734375 22.75 -2.234375 C 20.882812 -0.742188 18.222656 0 14.765625 0 L 2.5625 0 L 2.5625 -30.15625 Z M 10.40625 -18.3125 L 11.234375 -18.3125 C 12.804688 -18.3125 13.910156 -18.550781 14.546875 -19.03125 C 15.191406 -19.519531 15.515625 -20.253906 15.515625 -21.234375 C 15.515625 -22.222656 15.203125 -22.957031 14.578125 -23.4375 C 13.953125 -23.914062 12.8125 -24.15625 11.15625 -24.15625 L 10.40625 -24.15625 Z M 10.40625 -6 L 11.40625 -6 C 13.90625 -6 15.566406 -6.269531 16.390625 -6.8125 C 17.222656 -7.363281 17.640625 -8.160156 17.640625 -9.203125 C 17.640625 -10.296875 17.257812 -11.113281 16.5 -11.65625 C 15.738281 -12.207031 14.46875 -12.484375 12.6875 -12.484375 L 10.40625 -12.484375 Z M 10.40625 -6 "/>
      </g>
    </g>
  </g>
  <g fill="#9b59b6" fill-opacity="1">
    <g transform="translate(239.560282, 173.999989)">
      <g>
        <path
          d="M 34.40625 -15.640625 C 34.40625 -12.441406 33.679688 -9.566406 32.234375 -7.015625 C 30.796875 -4.472656 28.796875 -2.5 26.234375 -1.09375 C 23.679688 0.300781 20.921875 1 17.953125 1 C 14.679688 1 11.75 0.285156 9.15625 -1.140625 C 6.570312 -2.566406 4.570312 -4.53125 3.15625 -7.03125 C 1.75 -9.539062 1.046875 -12.289062 1.046875 -15.28125 C 1.046875 -18.03125 1.691406 -20.585938 2.984375 -22.953125 C 4.273438 -25.328125 6.253906 -27.285156 8.921875 -28.828125 C 11.585938 -30.378906 14.519531 -31.15625 17.71875 -31.15625 C 20.65625 -31.15625 23.410156 -30.484375 25.984375 -29.140625 C 28.554688 -27.796875 30.601562 -25.925781 32.125 -23.53125 C 33.644531 -21.144531 34.40625 -18.515625 34.40625 -15.640625 Z M 17.71875 -6.59375 C 20.144531 -6.59375 22.171875 -7.472656 23.796875 -9.234375 C 25.421875 -10.992188 26.234375 -13.113281 26.234375 -15.59375 C 26.234375 -17.675781 25.394531 -19.523438 23.71875 -21.140625 C 22.039062 -22.753906 20.03125 -23.5625 17.6875 -23.5625 C 15.46875 -23.5625 13.507812 -22.78125 11.8125 -21.21875 C 10.125 -19.65625 9.253906 -17.78125 9.203125 -15.59375 C 9.203125 -13.007812 10.023438 -10.863281 11.671875 -9.15625 C 13.328125 -7.445312 15.34375 -6.59375 17.71875 -6.59375 Z M 17.71875 -6.59375 "/>
      </g>
    </g>
  </g>
  <g fill="#9b59b6" fill-opacity="1">
    <g transform="translate(271.996761, 173.999989)">
      <g>
        <path
          d="M 34.40625 -15.640625 C 34.40625 -12.441406 33.679688 -9.566406 32.234375 -7.015625 C 30.796875 -4.472656 28.796875 -2.5 26.234375 -1.09375 C 23.679688 0.300781 20.921875 1 17.953125 1 C 14.679688 1 11.75 0.285156 9.15625 -1.140625 C 6.570312 -2.566406 4.570312 -4.53125 3.15625 -7.03125 C 1.75 -9.539062 1.046875 -12.289062 1.046875 -15.28125 C 1.046875 -18.03125 1.691406 -20.585938 2.984375 -22.953125 C 4.273438 -25.328125 6.253906 -27.285156 8.921875 -28.828125 C 11.585938 -30.378906 14.519531 -31.15625 17.71875 -31.15625 C 20.65625 -31.15625 23.410156 -30.484375 25.984375 -29.140625 C 28.554688 -27.796875 30.601562 -25.925781 32.125 -23.53125 C 33.644531 -21.144531 34.40625 -18.515625 34.40625 -15.640625 Z M 17.71875 -6.59375 C 20.144531 -6.59375 22.171875 -7.472656 23.796875 -9.234375 C 25.421875 -10.992188 26.234375 -13.113281 26.234375 -15.59375 C 26.234375 -17.675781 25.394531 -19.523438 23.71875 -21.140625 C 22.039062 -22.753906 20.03125 -23.5625 17.6875 -23.5625 C 15.46875 -23.5625 13.507812 -22.78125 11.8125 -21.21875 C 10.125 -19.65625 9.253906 -17.78125 9.203125 -15.59375 C 9.203125 -13.007812 10.023438 -10.863281 11.671875 -9.15625 C 13.328125 -7.445312 15.34375 -6.59375 17.71875 -6.59375 Z M 17.71875 -6.59375 "/>
      </g>
    </g>
  </g>
  <g fill="#dddddd" fill-opacity="1">
    <g transform="translate(304.433241, 173.999989)">
      <g>
        <path
          d="M 27.84375 -30.15625 L 13.640625 -6.640625 L 26.28125 -6.640625 L 26.28125 0 L 0.4375 0 L 14.71875 -23.515625 L 2.875 -23.515625 L 2.875 -30.15625 Z M 27.84375 -30.15625 "/>
      </g>
    </g>
  </g>
  <g fill="#dddddd" fill-opacity="1">
    <g transform="translate(329.670437, 173.999989)">
      <g>
        <path
          d="M 21.046875 -30.15625 L 21.046875 -23.515625 L 14.5625 -23.515625 L 14.5625 0 L 6.71875 0 L 6.71875 -23.515625 L 0.234375 -23.515625 L 0.234375 -30.15625 Z M 21.046875 -30.15625 "/>
      </g>
    </g>
  </g>
</svg>
