<svg xmlns="http://www.w3.org/2000/svg" xmlns:xlink="http://www.w3.org/1999/xlink" version="1.0" viewBox="0 0 375 375">
  <defs>
    <path id="a" d="m18.75 187.96 44.016-44.015 42.957 42.957-44.016 44.016Zm0 0"/>
  </defs>
  <defs>
    <clipPath id="b">
      <path d="M33 159h58v56H33Zm0 0"/>
    </clipPath>
    <clipPath id="c">
      <use xlink:href="#a"/>
    </clipPath>
    <clipPath id="d">
      <use xlink:href="#a"/>
    </clipPath>
    <clipPath id="e">
      <use xlink:href="#a"/>
    </clipPath>
    <clipPath id="f">
      <path d="M59 183h6v6h-6Zm0 0"/>
    </clipPath>
    <clipPath id="g">
      <use xlink:href="#a"/>
    </clipPath>
    <clipPath id="h">
      <use xlink:href="#a"/>
    </clipPath>
    <clipPath id="i">
      <use xlink:href="#a"/>
    </clipPath>
  </defs>
  <g clip-path="url(#b)">
    <g clip-path="url(#c)">
      <g clip-path="url(#d)">
        <g clip-path="url(#e)">
          <path fill="#9b59b6" d="M73.895 205.371c-.079-.098-.157-.2-.243-.289-1.265-1.445-2.886-3.023-4.789-4.27l-.008-.011a137.75 137.75 0 0 1-.222 5.226c-2.094-2.03-4.371-3.097-6.653-3.093l-.003-.004-.004.004c-2.278.004-4.559 1.074-6.66 3.113-.106-1.84-.172-3.57-.204-5.227l-.011.012c-1.903 1.254-3.535 2.832-4.805 4.29-.082.085-.16.187-.238.284.015-8.148 3.68-11.48 5.156-12.492.941-19.062 6.816-22.601 6.816-22.601s5.868 3.519 6.75 22.582c1.473 1.007 5.125 4.328 5.118 12.476ZM59.87 159.555c-13.71 1.058-24.8 12.113-25.894 25.82-1.094 13.602 7.566 25.379 19.734 29.102 3.691 1.136 7.281-2.122 6.633-5.938v-.008l-3.992.008c0-.004-.004 0 0-.004 1.226-1.437 3.234-3.23 5.62-3.23 2.391-.004 4.391 1.78 5.614 3.21 0 0-.004.005 0 .008l-3.988.004c-.668 3.852 2.965 7.067 6.695 5.899 11.457-3.57 19.809-14.278 19.828-26.88.024-16.222-13.762-29.257-30.25-27.991"/>
        </g>
      </g>
    </g>
  </g>
  <g clip-path="url(#f)">
    <g clip-path="url(#g)">
      <g clip-path="url(#h)">
        <g clip-path="url(#i)">
          <path fill="#9b59b6" d="M64.223 186.133A2.23 2.23 0 0 1 62 188.352a2.216 2.216 0 1 1 .008-4.434 2.206 2.206 0 0 1 2.215 2.215"/>
        </g>
      </g>
    </g>
  </g>
  <path fill="#fff" d="M142.063 141.594v5.11h-6.094v25.046h-5.875v-25.047h-6.078v-5.11Zm13.665-.797 11.453 30.953h-6.282l-2.328-6.36h-10.484l-2.469 6.36h-6.203l11.766-30.953Zm-5.954 19.797h7.157l-3.75-10.969h-.094Zm0 0"/>
  <path fill="#fff" d="M172.579 141.594v25.031h8.312v5.125h-14.203v-30.156Zm0 0"/>
  <path fill="#fff" d="M196.096 141.594v5.11h-9.719v6.64h9.36v5.125h-9.36v8.156h9.719v5.125h-15.61v-30.156Zm5.878-.797 15.875 21.078h.079v-20.281h5.875v30.75h-4.235l-15.875-21.078h-.078v20.484h-5.89v-30.953Zm0 0"/>
  <path fill="#fff" d="M241.692 141.594v5.11h-6.094v25.046h-5.875v-25.047h-6.078v-5.11Zm-102.809 55.5c2.926 0 5.13.683 6.61 2.047 1.476 1.355 2.219 3.39 2.219 6.109a9.34 9.34 0 0 1-.625 3.328c-.407 1.086-1.079 1.934-2.016 2.547 1.625.324 2.89 1.195 3.797 2.61.914 1.406 1.375 3.058 1.375 4.952 0 2.7-.852 4.805-2.547 6.313-1.7 1.5-4.027 2.25-6.984 2.25h-9.36v-30.156Zm-1.64 12.562h.719c1.593 0 2.703-.3 3.328-.906.632-.602.953-1.625.953-3.063 0-1.28-.324-2.242-.969-2.89-.637-.656-1.758-.985-3.36-.985h-.671Zm0 12.875h1.64c1.938 0 3.332-.328 4.188-.984.851-.656 1.281-1.77 1.281-3.344 0-1.219-.281-2.11-.844-2.672-.554-.562-1.164-.922-1.828-1.078-.78-.219-1.851-.328-3.203-.328h-1.234Zm0 0"/>
  <path fill="#9b59b6" d="M149.752 212.125c0-3.04.63-5.758 1.891-8.156 1.27-2.395 3.047-4.27 5.328-5.625 2.281-1.364 4.848-2.047 7.703-2.047 2.907 0 5.504.7 7.797 2.094 2.29 1.398 4.051 3.304 5.281 5.718 1.227 2.418 1.844 5.09 1.844 8.016 0 3.074-.636 5.824-1.906 8.25-1.262 2.43-3.023 4.312-5.281 5.656-2.25 1.344-4.828 2.016-7.735 2.016-2.855 0-5.414-.656-7.672-1.969-2.25-1.32-4.023-3.207-5.312-5.656-1.293-2.457-1.938-5.223-1.938-8.297Zm14.875-10.031c-2.5 0-4.593.96-6.28 2.875-1.68 1.918-2.516 4.226-2.516 6.922 0 3.011.789 5.492 2.375 7.437 1.593 1.95 3.75 2.922 6.468 2.922 2.72 0 4.868-.973 6.453-2.922 1.594-1.945 2.391-4.426 2.391-7.437 0-2.72-.844-5.032-2.531-6.938-1.68-1.906-3.797-2.86-6.36-2.86Zm0 0"/>
  <path fill="#9b59b6" d="M178.75 212.125c0-3.04.628-5.758 1.89-8.156 1.27-2.395 3.047-4.27 5.328-5.625 2.281-1.364 4.848-2.047 7.703-2.047 2.907 0 5.504.7 7.797 2.094 2.29 1.398 4.05 3.304 5.281 5.718 1.227 2.418 1.844 5.09 1.844 8.016 0 3.074-.637 5.824-1.906 8.25-1.262 2.43-3.024 4.312-5.281 5.656-2.25 1.344-4.828 2.016-7.735 2.016-2.855 0-5.414-.656-7.672-1.969-2.25-1.32-4.023-3.207-5.312-5.656-1.293-2.457-1.938-5.223-1.938-8.297Zm14.874-10.031c-2.5 0-4.593.96-6.28 2.875-1.68 1.918-2.516 4.226-2.516 6.922 0 3.011.789 5.492 2.375 7.437 1.593 1.95 3.75 2.922 6.468 2.922 2.719 0 4.867-.973 6.453-2.922 1.594-1.945 2.391-4.426 2.391-7.437 0-2.72-.844-5.032-2.531-6.938-1.68-1.906-3.797-2.86-6.36-2.86Zm0 0"/>
  <path fill="#fff" d="m229.824 197.094-13.234 25.031h12.516v5.125H207.23l13.28-25.047h-11.25v-5.11Zm0 0"/>
  <path fill="#fff" d="M245.792 197.094v5.11h-6.094v25.046h-5.875v-25.047h-6.078v-5.11Zm0 0"/>
  <path fill="none" stroke="#fff" stroke-width="3" d="M100.191 247.5v-120"/>
</svg>
