<svg height="1em" viewBox="0 0 24 24" width="1em" xmlns="http://www.w3.org/2000/svg"
     class="w-8 h-8 pointer-events-none">
  <path
    d="M14.863 2c-2.933 0-4.828 1.932-4.828 4.922v2.27H7.41a.41.41 0 00-.41.407v3.289a.41.41 0 00.41.407h2.625v8.297c0 .226.184.408.41.408h3.425a.41.41 0 00.41-.408v-8.297h3.069c.227 0 .41-.182.41-.407l.002-3.289a.407.407 0 00-.411-.408h-3.07V7.268c0-.925.222-1.394 1.434-1.394l1.759-.001a.41.41 0 00.41-.408V2.412a.41.41 0 00-.41-.408z"
    fill="currentcolor" fill-rule="evenodd"></path>
</svg>
