<svg width="1em" height="1em" viewBox="0 0 24 24" xmlns="http://www.w3.org/2000/svg"
     class="w-8 h-8 pointer-events-none">
  <path
    d="M22 12.156a2.198 2.198 0 00-2.197-2.197 2.11 2.11 0 00-1.511.615c-1.494-1.072-3.568-1.775-5.853-1.863l1.002-4.692 3.251.685a1.566 1.566 0 003.129-.07c0-.861-.703-1.564-1.564-1.564a1.52 1.52 0 00-1.389.879l-3.638-.774a.438.438 0 00-.299.053.428.428 0 00-.175.246l-1.107 5.237c-2.338.07-4.43.756-5.94 1.863a2.217 2.217 0 00-1.512-.615A2.198 2.198 0 002 12.156c0 .896.527 1.652 1.3 2.004-.035.21-.052.439-.052.667 0 3.375 3.919 6.099 8.77 6.099 4.85 0 8.77-2.724 8.77-6.099 0-.228-.018-.439-.053-.65A2.274 2.274 0 0022 12.157zM6.974 13.72c0-.86.703-1.564 1.564-1.564.86 0 1.564.703 1.564 1.564 0 .861-.703 1.564-1.564 1.564a1.568 1.568 0 01-1.564-1.564zm8.734 4.13c-1.072 1.072-3.11 1.143-3.708 1.143-.598 0-2.654-.088-3.708-1.143a.414.414 0 010-.58.414.414 0 01.58 0c.668.668 2.109.914 3.146.914 1.036 0 2.46-.246 3.145-.914a.414.414 0 01.58 0 .452.452 0 01-.035.58zm-.28-2.566a1.568 1.568 0 01-1.565-1.564c0-.86.703-1.564 1.564-1.564.861 0 1.564.703 1.564 1.564 0 .861-.703 1.564-1.564 1.564z"
    fill="currentcolor" fill-rule="evenodd"></path>
</svg>
