<svg width="50" height="54" viewBox="0 0 50 54" fill="none" xmlns="http://www.w3.org/2000/svg">
  <path
    d="M2.09332 20.8855C2.68082 16.5551 6.25999 13.2902 10.4162 13.2902C11.6642 13.2902 12.8621 13.5715 13.9808 14.1252C14.5017 14.3822 14.7287 15.0423 14.485 15.596C14.2433 16.152 13.6246 16.3934 13.1017 16.1321C12.26 15.7156 11.3579 15.5052 10.4162 15.5052C7.28915 15.5052 4.59749 17.9528 4.15582 21.2C4.08082 21.7516 3.63499 22.1503 3.12665 22.1503C3.07874 22.1503 3.02665 22.1459 2.97665 22.1392C2.4079 22.0506 2.01207 21.4902 2.0954 20.8855H2.09332ZM36.0183 14.1252C35.4975 14.3822 35.2704 15.0423 35.5142 15.596C35.7558 16.152 36.3746 16.3934 36.8975 16.1321C37.7392 15.7156 38.6412 15.5052 39.5829 15.5052C42.71 15.5052 45.4017 17.9528 45.8433 21.2C45.9183 21.7516 46.3642 22.1503 46.8725 22.1503C46.9204 22.1503 46.9725 22.1459 47.0225 22.1392C47.5912 22.0506 47.9871 21.4902 47.9037 20.8855C47.3162 16.5551 43.7371 13.2902 39.5808 13.2902C38.3329 13.2902 37.1371 13.5715 36.0183 14.1252ZM35.4162 6.64509C35.4162 4.20191 37.285 2.21503 39.5829 2.21503C41.8808 2.21503 43.7496 4.20191 43.7496 6.64509C43.7496 9.08827 41.8808 11.0751 39.5829 11.0751C37.285 11.0751 35.4162 9.08827 35.4162 6.64509ZM37.4996 6.64509C37.4996 7.86778 38.435 8.86012 39.5829 8.86012C40.7308 8.86012 41.6662 7.86778 41.6662 6.64509C41.6662 5.42239 40.7308 4.43006 39.5829 4.43006C38.435 4.43006 37.4996 5.42239 37.4996 6.64509ZM17.56 22.1392C18.1308 22.219 18.6579 21.8047 18.7392 21.2C19.1808 17.9528 21.8725 15.5052 24.9996 15.5052C28.1267 15.5052 30.8183 17.9528 31.26 21.2C31.335 21.7516 31.7808 22.1503 32.2892 22.1503C32.3371 22.1503 32.3892 22.1459 32.4392 22.1392C33.0079 22.0506 33.4037 21.4902 33.3204 20.8855C32.7329 16.5551 29.1537 13.2902 24.9975 13.2902C20.8412 13.2902 17.2642 16.5551 16.6746 20.8855C16.5912 21.4902 16.9871 22.0506 17.5558 22.1392H17.56ZM49.9767 27.7344C49.4037 41.9925 38.4308 53.1607 24.9996 53.1607C11.5683 53.1607 0.597486 41.9925 0.0224864 27.7344C-0.00251357 27.123 0.44332 26.6069 1.01832 26.5804C1.5829 26.5981 2.07874 27.0278 2.10374 27.6413C2.21415 30.3946 2.7704 33.0084 3.6579 35.4405H13.8808C13.1454 33.0217 12.6371 30.4411 12.5246 27.7366C12.4996 27.1252 12.9433 26.6069 13.5183 26.5826C14.085 26.5139 14.5787 27.0256 14.6058 27.6391C14.7204 30.3747 15.2954 32.9929 16.1058 35.4405H33.8933C34.7037 32.9929 35.2787 30.3747 35.3933 27.6391C35.4204 27.0278 35.9162 26.5228 36.4808 26.5826C37.0558 26.6091 37.4996 27.1252 37.4746 27.7366C37.36 30.4389 36.8517 33.0217 36.1183 35.4405H46.3412C47.2287 33.0084 47.785 30.3924 47.8954 27.6413C47.9204 27.03 48.4142 26.6025 48.9808 26.5804C49.5558 26.6091 50.0017 27.123 49.9767 27.7344ZM22.4142 50.7795C20.2892 48.2433 16.8517 43.5652 14.6308 37.6555H4.59124C8.00999 44.7945 14.6121 49.8537 22.4142 50.7795ZM24.9996 50.4761C26.5871 48.7085 30.5162 43.9395 33.0767 37.6555H16.9204C19.4808 43.9417 23.41 48.7107 24.9975 50.4761H24.9996ZM45.4079 37.6555H35.3683C33.1475 43.5652 29.71 48.2433 27.585 50.7795C35.3871 49.8537 41.9892 44.7923 45.4079 37.6555ZM6.24957 6.64509C6.24957 4.20191 8.11832 2.21503 10.4162 2.21503C12.7142 2.21503 14.5829 4.20191 14.5829 6.64509C14.5829 9.08827 12.7142 11.0751 10.4162 11.0751C8.11832 11.0751 6.24957 9.08827 6.24957 6.64509ZM8.3329 6.64509C8.3329 7.86778 9.26832 8.86012 10.4162 8.86012C11.5642 8.86012 12.4996 7.86778 12.4996 6.64509C12.4996 5.42239 11.5642 4.43006 10.4162 4.43006C9.26832 4.43006 8.3329 5.42239 8.3329 6.64509ZM20.0308 5.53757C20.0308 2.48305 22.3683 0 25.2392 0C28.11 0 30.4475 2.48305 30.4475 5.53757C30.4475 8.5921 28.11 11.0751 25.2392 11.0751C22.3683 11.0751 20.0308 8.5921 20.0308 5.53757ZM22.1142 5.53757C22.1142 7.3694 23.5162 8.86012 25.2392 8.86012C26.9621 8.86012 28.3642 7.3694 28.3642 5.53757C28.3642 3.70574 26.9621 2.21503 25.2392 2.21503C23.5162 2.21503 22.1142 3.70574 22.1142 5.53757Z"
    fill="#AF7AC5"/>
</svg>
