<svg width="46" height="54" viewBox="0 0 46 54" fill="none" xmlns="http://www.w3.org/2000/svg">
  <path
    d="M45.8334 43.0683V51.3104C45.8334 52.5331 44.9021 53.5254 43.75 53.5254C42.598 53.5254 41.6667 52.5331 41.6667 51.3104V43.0683C41.6667 39.9119 39.5521 37.1719 36.6417 36.5517L22.5084 33.5459C21.5355 33.3399 20.8334 32.4295 20.8334 31.3751V16.1069C20.8334 14.9153 20.0792 13.852 19.1167 13.6881C18.4792 13.5774 17.875 13.7546 17.4021 14.1821C16.9355 14.6029 16.6667 15.2187 16.6667 15.8699V46.0785C16.6667 46.9291 16.2084 47.7043 15.4875 48.0742C14.7709 48.4442 13.9125 48.3445 13.2855 47.8107L7.7917 43.1591C6.82712 42.2111 5.51045 42.2598 4.7292 43.1502C3.94587 44.0429 3.98962 45.4516 4.82712 46.2889L7.69587 49.2305C8.52295 50.0788 8.54795 51.481 7.74795 52.3625C6.95004 53.2419 5.63129 53.2663 4.80212 52.4179L1.9542 49.4985C-0.53538 47.0155 -0.668713 42.8025 1.68337 40.1267C4.03545 37.4554 7.99379 37.3114 10.5105 39.8078L12.5 41.489V15.8699C12.5 13.9185 13.3021 12.0734 14.7021 10.8064C16.1 9.53938 17.9542 8.99448 19.7834 9.31345C22.7563 9.82512 24.998 12.7467 24.998 16.1047V29.5566L37.4563 32.2058C42.3084 33.238 45.8313 37.8054 45.8313 43.0661L45.8334 43.0683ZM7.38337 23.6225C7.67504 23.6225 7.96879 23.5583 8.25212 23.421C9.29795 22.9115 9.75629 21.5958 9.27712 20.4838C8.65004 19.033 8.33337 17.4803 8.33337 15.8699C8.33337 9.7631 13.0063 4.79479 18.75 4.79479C24.4938 4.79479 29.1667 9.7631 29.1667 15.8699C29.1667 17.4847 28.85 19.0352 28.225 20.4838C27.7438 21.5958 28.2021 22.9115 29.2459 23.421C30.298 23.9326 31.5313 23.4453 32.0084 22.3334C32.8875 20.3022 33.3334 18.127 33.3334 15.8721C33.3334 7.32214 26.7917 0.366943 18.75 0.366943C10.7084 0.366943 4.1667 7.31992 4.1667 15.8699C4.1667 18.1226 4.61254 20.2956 5.48962 22.3312C5.83962 23.1441 6.59587 23.6225 7.38545 23.6225H7.38337Z"
    fill="#AF7AC5"/>
</svg>
